<?xml version="1.0" encoding="utf-8"?>
<!-- Generator: Adobe Illustrator 16.0.0, SVG Export Plug-In . SVG Version: 6.00 Build 0)  -->
<!DOCTYPE svg PUBLIC "-//W3C//DTD SVG 1.1//EN" "http://www.w3.org/Graphics/SVG/1.1/DTD/svg11.dtd">
<svg version="1.1" id="Layer_1" xmlns="http://www.w3.org/2000/svg" xmlns:xlink="http://www.w3.org/1999/xlink" x="0px" y="0px"
	 width="406px" height="106px" viewBox="0 0 406 106" enable-background="new 0 0 406 106" xml:space="preserve">
<g>
	<g>
		<g>
			<path fill="#FFFFFF" d="M148.483,64.334c0-0.309,0.279-0.588,0.588-0.588h1.238c0.31,0,0.588,0.279,0.588,0.588v20.484
				c0,0.309-0.278,0.588-0.588,0.588h-1.238c-0.309,0-0.588-0.279-0.588-0.588V64.334z"/>
			<path fill="#FFFFFF" d="M163.395,63.992c0-0.307,0.279-0.557,0.588-0.557h0.774l13.955,17.389c0.031,0,0.031,0,0.062,0v-16.49
				c0-0.309,0.248-0.588,0.588-0.588h1.083c0.31,0,0.587,0.279,0.587,0.588v20.824c0,0.309-0.278,0.557-0.587,0.557h-0.557
				l-14.202-17.729h-0.031v16.832c0,0.309-0.248,0.588-0.588,0.588h-1.083c-0.309,0-0.588-0.279-0.588-0.588V63.992z"/>
			<path fill="#FFFFFF" d="M196.591,65.818h-5.384c-0.34,0-0.588-0.277-0.588-0.586v-0.898c0-0.309,0.248-0.588,0.588-0.588h13.119
				c0.34,0,0.589,0.279,0.589,0.588v0.898c0,0.309-0.249,0.586-0.589,0.586h-5.383v19c0,0.309-0.278,0.588-0.588,0.588h-1.175
				c-0.31,0-0.588-0.279-0.588-0.588V65.818z"/>
			<path fill="#FFFFFF" d="M214.504,64.334c0-0.309,0.247-0.588,0.588-0.588h12.189c0.342,0,0.59,0.279,0.59,0.588v0.898
				c0,0.309-0.248,0.586-0.59,0.586h-10.396v7.551h8.881c0.311,0,0.59,0.279,0.59,0.588v0.896c0,0.342-0.279,0.59-0.59,0.59h-8.881
				v7.891h10.396c0.342,0,0.59,0.277,0.59,0.586v0.898c0,0.309-0.248,0.588-0.59,0.588h-12.189c-0.341,0-0.588-0.279-0.588-0.588
				V64.334z"/>
			<path fill="#FFFFFF" d="M239.006,64.334c0-0.309,0.248-0.588,0.587-0.588h8.014c3.714,0,6.745,2.908,6.745,6.59
				c0,2.848-1.887,5.23-4.578,6.312l4.238,7.859c0.217,0.402,0,0.898-0.526,0.898h-1.577c-0.277,0-0.434-0.156-0.496-0.279
				l-4.114-8.199h-5.909v7.891c0,0.309-0.279,0.588-0.588,0.588h-1.208c-0.339,0-0.587-0.279-0.587-0.588V64.334z M247.452,74.885
				c2.383,0,4.456-1.98,4.456-4.518c0-2.35-2.073-4.361-4.456-4.361h-6.003v8.879H247.452z"/>
			<path fill="#FFFFFF" d="M262.672,84.602l9.406-20.824c0.093-0.186,0.248-0.342,0.525-0.342h0.311
				c0.277,0,0.434,0.156,0.526,0.342l9.345,20.824c0.185,0.402-0.062,0.805-0.526,0.805h-1.238c-0.277,0-0.465-0.188-0.526-0.342
				l-2.29-5.104h-10.983l-2.258,5.104c-0.062,0.154-0.249,0.342-0.526,0.342h-1.239C262.734,85.406,262.487,85.004,262.672,84.602z
				 M277.37,78.041c-1.517-3.373-3.001-6.775-4.518-10.148h-0.249l-4.517,10.148H277.37z"/>
			<path fill="#FFFFFF" d="M301.81,63.436c3.126,0,5.384,1.086,7.489,2.879c0.246,0.248,0.277,0.617,0.031,0.867l-0.837,0.836
				c-0.248,0.309-0.495,0.277-0.805-0.031c-1.608-1.393-3.805-2.322-5.91-2.322c-4.887,0-8.632,4.115-8.632,8.912
				c0,4.764,3.745,8.881,8.632,8.881c2.693,0,4.271-1.084,5.91-2.322c0.31-0.246,0.557-0.215,0.743-0.092l0.929,0.836
				c0.247,0.186,0.185,0.619-0.03,0.834c-2.105,2.041-4.767,3.002-7.521,3.002c-6.188,0-11.169-4.92-11.169-11.107
				C290.641,68.418,295.622,63.436,301.81,63.436z"/>
			<path fill="#FFFFFF" d="M323.342,65.818h-5.384c-0.342,0-0.588-0.277-0.588-0.586v-0.898c0-0.309,0.246-0.588,0.588-0.588h13.118
				c0.341,0,0.589,0.279,0.589,0.588v0.898c0,0.309-0.248,0.586-0.589,0.586h-5.383v19c0,0.309-0.279,0.588-0.589,0.588h-1.175
				c-0.311,0-0.588-0.279-0.588-0.588V65.818z"/>
			<path fill="#FFFFFF" d="M341.253,64.334c0-0.309,0.279-0.588,0.587-0.588h1.239c0.308,0,0.587,0.279,0.587,0.588v20.484
				c0,0.309-0.279,0.588-0.587,0.588h-1.239c-0.308,0-0.587-0.279-0.587-0.588V64.334z"/>
			<path fill="#FFFFFF" d="M353.227,64.551c-0.187-0.402,0.062-0.805,0.526-0.805h1.236c0.279,0,0.464,0.186,0.526,0.342
				l7.705,17.326h0.123l7.705-17.326c0.062-0.156,0.277-0.342,0.526-0.342h1.236c0.465,0,0.713,0.402,0.526,0.805l-9.406,20.824
				c-0.093,0.186-0.277,0.34-0.526,0.34h-0.308c-0.218,0-0.434-0.154-0.526-0.34L353.227,64.551z"/>
			<path fill="#FFFFFF" d="M392.301,63.436c6.188,0,11.14,4.982,11.14,11.172c0,6.188-4.951,11.107-11.14,11.107
				c-6.188,0-11.107-4.92-11.107-11.107C381.193,68.418,386.113,63.436,392.301,63.436z M392.301,83.549
				c4.919,0,8.973-4.021,8.973-8.941s-4.054-9.004-8.973-9.004c-4.92,0-8.942,4.084-8.942,9.004S387.381,83.549,392.301,83.549z"/>
		</g>
	</g>
	<g>
		<path fill="#FFFFFF" d="M64.25,16.368c-3.357-0.946-6.8-1.426-10.249-1.426c-6.045,0-12.104,1.51-17.522,4.366
			C27.577,24,21.034,31.88,18.056,41.495c-2.977,9.614-2.033,19.814,2.659,28.716c4.542,8.611,12.062,15.016,21.248,18.121
			l2.022-6.529c-7.434-2.561-13.521-7.779-17.213-14.785c-3.846-7.297-4.624-15.644-2.189-23.502
			c2.438-7.872,7.795-14.322,15.083-18.163c6.909-3.643,15.048-4.526,22.561-2.454L64.25,16.368z"/>
	</g>
	<g>
		<g>
			<g>
				<g>
					<path fill="#FFFFFF" d="M162.397,20.843c3.902,0,12.348,1.424,12.348,6.427v3.947h-4.269v-2.523
						c0-2.848-4.911-3.903-7.895-3.903c-6.931,0-12.026,5.096-12.026,12.44c0,7.666,5.233,13.128,12.301,13.128
						c2.295,0,8.079-0.826,8.079-3.811v-2.525h4.269v3.949c0,4.773-8.124,6.379-12.623,6.379c-9.731,0-16.754-7.481-16.754-16.938
						C145.827,27.913,153.033,20.843,162.397,20.843z"/>
					<path fill="#FFFFFF" d="M195.442,20.843c9.363,0,16.662,7.207,16.662,16.525c0,9.549-7.299,16.984-16.662,16.984
						c-9.409,0-16.662-7.435-16.662-16.984C178.78,28.05,186.033,20.843,195.442,20.843z M195.442,50.266
						c6.564,0,11.888-5.6,11.888-12.898c0-7.068-5.324-12.485-11.888-12.485c-6.609,0-11.934,5.417-11.934,12.485
						C183.508,44.667,188.833,50.266,195.442,50.266z"/>
					<path fill="#FFFFFF" d="M215.27,50.22h4.039V24.929h-4.039v-3.535h8.581l15.929,23.227c0.551,0.918,1.102,2.34,1.102,2.34
						h0.137c0,0-0.229-1.606-0.229-2.615V24.929h-4.13v-3.535h12.806v3.535h-4.086v28.872h-4.498l-15.928-23.226
						c-0.596-0.919-1.103-2.342-1.103-2.342h-0.137c0,0,0.229,1.606,0.183,2.618v19.37h4.179v3.581H215.27V50.22z"/>
					<path fill="#FFFFFF" d="M269.152,20.843c5.692,0,12.44,2.296,12.44,6.381v3.993h-4.225V28.83c0-2.709-4.269-4.04-8.077-4.04
						c-7.574,0-12.348,5.142-12.348,12.578c0,7.481,4.865,12.991,12.484,12.991c2.892,0,8.676-0.873,8.676-4.039v-4.27h-6.336
						v-3.581h10.559v9.089c0,5.002-8.354,6.793-13.221,6.793c-9.959,0-16.936-7.252-16.936-16.845
						C252.17,27.913,259.055,20.843,269.152,20.843z"/>
					<path fill="#FFFFFF" d="M286.362,50.22h4.039V24.929h-4.039v-3.535h14.045c2.294,0,4.176,0.092,5.968,0.689
						c3.396,1.146,5.646,3.993,5.646,8.399c0,4.683-2.571,8.033-6.701,9.089v0.092c0,0,0.826,0.459,1.375,1.514l4.591,7.986
						c0.504,0.873,1.102,1.057,2.25,1.057h0.963v3.581h-2.753c-2.755,0-3.397-0.504-4.5-2.432l-5.003-8.859
						c-0.826-1.378-1.423-1.79-3.396-1.79h-3.856v9.501h3.993v3.581h-12.621V50.22z M301.509,36.955
						c3.535,0,5.875-2.296,5.875-6.104c0-2.525-1.009-4.269-3.03-5.096c-1.056-0.414-2.433-0.597-3.993-0.597h-5.37v11.797H301.509z
						"/>
					<path fill="#FFFFFF" d="M317.204,50.22h4.04V24.929h-4.04v-3.535h23.455v7.528h-3.993v-3.765h-10.832v10.42h11.476v3.763
						h-11.476v10.695h11.612v-3.902h3.993v7.667h-24.235V50.22z"/>
					<path fill="#FFFFFF" d="M349.285,44.07v2.387c0,2.387,3.076,3.81,6.473,3.81c3.718,0,6.427-1.743,6.427-4.956
						c0-3.764-3.811-5.005-7.804-6.565c-4.269-1.606-8.628-3.442-8.628-9.181c0-6.105,4.91-8.721,10.373-8.721
						c4.864,0,9.822,1.836,9.822,5.371v3.811h-4.269v-2.25c0-1.882-2.892-2.892-5.554-2.892c-3.167,0-5.692,1.47-5.692,4.452
						c0,3.442,3.26,4.591,6.885,5.968c4.773,1.79,9.503,3.625,9.503,9.64c0,6.196-5.05,9.41-11.063,9.41
						c-5.049,0-10.695-2.25-10.695-6.886V44.07H349.285z"/>
					<path fill="#FFFFFF" d="M386.876,20.843c9.363,0,16.662,7.207,16.662,16.525c0,9.549-7.299,16.984-16.662,16.984
						c-9.41,0-16.663-7.435-16.663-16.984C370.213,28.05,377.466,20.843,386.876,20.843z M386.876,50.266
						c6.564,0,11.889-5.6,11.889-12.898c0-7.068-5.324-12.485-11.889-12.485c-6.609,0-11.934,5.417-11.934,12.485
						C374.942,44.667,380.267,50.266,386.876,50.266z"/>
				</g>
			</g>
			<g>
				<g>
					<path fill="#FFFFFF" d="M56.078,104.877C27.428,106.443,2.845,84.406,1.28,55.754C-0.284,27.102,21.751,2.52,50.402,0.956
						l0.646,11.833c-22.126,1.208-39.144,20.192-37.935,42.318c1.208,22.127,20.192,39.146,42.319,37.936L56.078,104.877
						L56.078,104.877z"/>
				</g>
			</g>
			<g>
				<path fill="#FFFFFF" d="M69.188,51.136c0.425,7.788-5.54,14.444-13.326,14.868c-7.786,0.426-14.442-5.539-14.867-13.329
					c-0.426-7.783,5.542-14.439,13.327-14.865C62.108,37.385,68.763,43.353,69.188,51.136z"/>
			</g>
		</g>
	</g>
	<g>
		<g>
			<path fill="#FFFFFF" d="M76.428,18.138L76.428,18.138c2.982,0.135,5.29,2.661,5.154,5.645l0,0
				c-0.065,1.429-0.697,2.776-1.754,3.745c-1.058,0.965-2.457,1.47-3.888,1.404l0,0c-2.981-0.135-5.287-2.661-5.152-5.639l0,0
				C70.924,20.31,73.449,18.003,76.428,18.138z"/>
			<path fill="#FFFFFF" d="M85.965,27.561L85.965,27.561c2.98,0.137,5.286,2.662,5.151,5.644l0,0
				c-0.064,1.431-0.695,2.778-1.753,3.743c-1.06,0.969-2.457,1.474-3.888,1.408l0,0c-2.981-0.135-5.289-2.66-5.153-5.64l0,0
				C80.457,29.733,82.983,27.426,85.965,27.561z"/>
			<path fill="#FFFFFF" d="M91.211,56.822L91.211,56.822c2.981,0.137,5.289,2.664,5.155,5.645l0,0
				c-0.065,1.432-0.697,2.779-1.757,3.744c-1.057,0.967-2.454,1.473-3.888,1.41l0,0c-2.98-0.137-5.288-2.664-5.152-5.645l0,0
				C85.703,58.998,88.23,56.688,91.211,56.822z"/>
			<path fill="#FFFFFF" d="M82.791,68.688L82.791,68.688c2.98,0.135,5.286,2.662,5.152,5.643l0,0
				c-0.066,1.432-0.697,2.777-1.754,3.744c-1.058,0.965-2.457,1.473-3.889,1.406l0,0c-2.98-0.133-5.289-2.66-5.154-5.641l0,0
				C77.282,70.859,79.809,68.551,82.791,68.688z"/>
			<path fill="#FFFFFF" d="M69.511,78.895L69.511,78.895c2.982,0.137,5.288,2.66,5.153,5.645l0,0
				c-0.065,1.43-0.696,2.777-1.755,3.744c-1.057,0.965-2.456,1.473-3.887,1.404l0,0c-2.98-0.135-5.288-2.658-5.153-5.637l0,0
				C64.003,81.068,66.531,78.76,69.511,78.895z"/>
			<path fill="#FFFFFF" d="M91.883,42.005L91.883,42.005c2.98,0.138,5.288,2.661,5.153,5.643l0,0
				c-0.064,1.432-0.696,2.779-1.755,3.745c-1.057,0.967-2.456,1.472-3.888,1.408l0,0c-2.981-0.137-5.288-2.662-5.153-5.642l0,0
				C86.375,44.177,88.903,41.871,91.883,42.005z"/>
			<path fill="#FFFFFF" d="M88.521,4.294L88.521,4.294c4.17,0.189,7.397,3.724,7.208,7.894l0,0
				c-0.091,2.001-0.975,3.885-2.454,5.236c-1.479,1.354-3.437,2.061-5.438,1.973l0,0c-4.171-0.191-7.398-3.724-7.209-7.893l0,0
				C80.818,7.332,84.352,4.103,88.521,4.294z"/>
			<path fill="#FFFFFF" d="M101.87,17.485L101.87,17.485c4.17,0.189,7.398,3.724,7.209,7.896l0,0c-0.09,2-0.975,3.884-2.454,5.234
				c-1.481,1.352-3.438,2.063-5.439,1.973l0,0c-4.171-0.189-7.398-3.724-7.209-7.893l0,0C94.167,20.523,97.701,17.296,101.87,17.485
				z"/>
			<path fill="#FFFFFF" d="M109.215,58.453L109.215,58.453c4.17,0.188,7.398,3.723,7.209,7.895l0,0c-0.09,2-0.973,3.887-2.454,5.236
				c-1.48,1.354-3.437,2.061-5.44,1.969l0,0c-4.17-0.188-7.397-3.719-7.208-7.891l0,0C101.511,61.492,105.044,58.264,109.215,58.453
				z"/>
			<path fill="#FFFFFF" d="M97.425,75.062L97.425,75.062c4.171,0.188,7.399,3.721,7.209,7.891l0,0
				c-0.091,2.004-0.973,3.887-2.453,5.238c-1.479,1.352-3.437,2.061-5.44,1.973l0,0c-4.168-0.189-7.396-3.725-7.208-7.895l0,0
				C89.724,78.1,93.257,74.871,97.425,75.062z"/>
			<path fill="#FFFFFF" d="M78.836,89.352L78.836,89.352c4.168,0.188,7.398,3.723,7.208,7.895l0,0
				c-0.091,2.002-0.973,3.887-2.454,5.236c-1.48,1.354-3.438,2.061-5.438,1.971l0,0c-4.173-0.188-7.397-3.721-7.21-7.893l0,0
				C71.133,92.391,74.666,89.162,78.836,89.352z"/>
			<path fill="#FFFFFF" d="M110.156,37.708L110.156,37.708c4.17,0.188,7.397,3.722,7.208,7.893l0,0
				c-0.09,2.001-0.973,3.885-2.454,5.237c-1.479,1.353-3.437,2.063-5.439,1.971l0,0c-4.169-0.188-7.398-3.724-7.209-7.894l0,0
				C102.452,40.744,105.986,37.52,110.156,37.708z"/>
		</g>
	</g>
</g>
</svg>
