<?xml version="1.0" encoding="utf-8"?>
<!-- Generator: Adobe Illustrator 16.0.0, SVG Export Plug-In . SVG Version: 6.00 Build 0)  -->
<!DOCTYPE svg PUBLIC "-//W3C//DTD SVG 1.1//EN" "http://www.w3.org/Graphics/SVG/1.1/DTD/svg11.dtd">
<svg version="1.1" id="Layer_1" xmlns="http://www.w3.org/2000/svg" xmlns:xlink="http://www.w3.org/1999/xlink" x="0px" y="0px"
	 width="200.999px" height="323.639px" viewBox="-0.998 -1 200.999 323.639" enable-background="new -0.998 -1 200.999 323.639"
	 xml:space="preserve">
<g>
	<g>
		<g>
			<path fill="#55C3C3" d="M23.555,51.309c-1.152,0-2.134-0.79-2.625-2.111L11.37,23.477c-0.647-1.74-0.504-4.553,0.858-6.242
				c2.534-3.148,8.069-8.491,16.261-8.174c2.506,0.096,4.787,0.523,6.803,0.904c1.932,0.362,3.754,0.706,5.47,0.706
				c3.323,0,7.146-1.106,12.548-9.142c0.891-1.327,1.923-1.524,2.456-1.524c0.533,0,1.854,0.203,2.552,2.089l9.4,25.28
				c0.61,1.639,0.702,4.388-0.331,6.26c-1.593,2.896-5.04,8.023-10.24,9.776c-1.478,0.496-3.121,0.739-5.03,0.739
				c-2.437,0-4.957-0.395-7.394-0.775c-2.327-0.363-4.525-0.707-6.544-0.707c-1.456,0-2.658,0.184-3.668,0.56
				c-3.781,1.409-6.948,4.829-8.5,6.743C25.112,51.074,24.18,51.309,23.555,51.309z M27.797,11.947
				c-6.604,0-11.176,4.452-13.31,7.104c-0.588,0.73-0.781,2.387-0.399,3.415l9.565,25.721c0.009,0.018,0.014,0.036,0.023,0.055
				c0.027-0.027,0.055-0.06,0.087-0.096c2.125-2.621,5.536-6.072,9.744-7.638c1.341-0.5,2.873-0.743,4.682-0.743
				c2.244,0,4.659,0.376,6.995,0.743c2.327,0.362,4.732,0.739,6.944,0.739c1.588,0,2.933-0.193,4.104-0.588
				c4.269-1.437,7.233-5.893,8.624-8.422c0.496-0.9,0.569-2.74,0.152-3.855L55.647,3.236c-4.888,7.243-9.345,10.331-14.889,10.331
				c-1.987,0-3.938-0.367-6.008-0.756c-2.01-0.377-4.085-0.767-6.38-0.854C28.177,11.947,27.985,11.947,27.797,11.947z"/>
		</g>
		<path fill="#55C3C3" d="M2.636,14.719c-2.093,0.781-3.158,3.107-2.382,5.2c0.202,0.537,0.505,1.005,0.877,1.386
			c0.633,0.657,1.79,2.08,2.318,3.507l20.787,55.893c0.528,1.423,2.116,2.153,3.543,1.625c1.428-0.533,2.153-2.121,1.621-3.543
			L8.616,22.894c-0.532-1.428-0.587-3.254-0.537-4.168c0.032-0.532-0.046-1.087-0.244-1.624C7.06,15.008,4.733,13.939,2.636,14.719z
			"/>
		<g>
			<path fill="#55C3C3" d="M47.041,10.51c1.542,4.149,2.625,7.059,4.167,11.208c4.755-1.056,6.453-3.41,9.409-9.281L56.96,2.594
				c-0.533-1.428-1.602-1.524-2.446-0.262c-2.947,4.383-5.535,6.907-7.996,8.293C46.692,10.584,46.853,10.552,47.041,10.51z"/>
			<path fill="#55C3C3" d="M64.363,22.586c-2.974,5.87-4.677,8.215-9.44,9.258c1.248,3.35,2.359,6.348,3.506,9.427
				c3.717-1.987,6.301-5.811,7.692-8.339c0.735-1.336,0.771-3.631,0.244-5.059l-3.534-9.5L64.363,22.586z"/>
			<path fill="#55C3C3" d="M42.158,32.252c5.36,0.555,4.911,2.616,12.911,0.073c-1.574-4.236-2.364-6.352-3.938-10.584
				c-6.729,2.501-7.55,0.487-12.911-0.073C39.799,25.904,40.584,28.02,42.158,32.252z"/>
			<path fill="#55C3C3" d="M41.956,31.779c-5.361-0.556-8.463-2.795-12.893-0.014c1.299,3.492,2.616,7.036,3.919,10.547
				c0.34-0.156,0.671-0.316,1.02-0.445c3.313-1.234,7.518-0.455,11.777,0.207C44.264,37.984,43.489,35.896,41.956,31.779z"/>
			<path fill="#55C3C3" d="M25.157,21.687c-4.269,1.015-7.5,2.433-10.249,7.155l3.934,10.579c2.979-3.772,6.04-6.187,10.373-7.183
				c-1.574-4.236-2.363-6.353-3.938-10.589c6.756-2.515,7.445-0.56,12.75-0.009c-1.542-4.149-2.313-6.219-3.855-10.368
				c0.183,0.019,0.339,0.027,0.514,0.046c-1.933-0.363-3.988-0.73-6.26-0.817c-2.611-0.101-4.925,0.436-6.944,1.29
				C22.684,15.031,23.849,18.166,25.157,21.687z"/>
		</g>
		<g>
			<g>
				<path fill="none" stroke="#C4C2C3" stroke-width="2" stroke-linecap="round" stroke-linejoin="round" d="M56.303,63.03
					c-0.399-0.243-0.794-0.477-1.184-0.702"/>
				
					<path fill="none" stroke="#C4C2C3" stroke-width="2" stroke-linecap="round" stroke-linejoin="round" stroke-dasharray="5.6243,5.6243" d="
					M52.824,61.139c-11.571-5.461-19.603-0.831-23.063,2.034"/>
				<path fill="none" stroke="#C4C2C3" stroke-width="2" stroke-linecap="round" stroke-linejoin="round" d="M28.798,64.026
					c-0.629,0.597-0.95,0.996-0.95,0.996"/>
			</g>
		</g>
		<g>
			<g>
				<path fill="none" stroke="#C4C2C3" stroke-width="2" stroke-linecap="round" stroke-linejoin="round" d="M53.701,68.846
					c-0.409-0.234-0.808-0.455-1.207-0.661"/>
				
					<path fill="none" stroke="#C4C2C3" stroke-width="2" stroke-linecap="round" stroke-linejoin="round" stroke-dasharray="5.3161,5.3161" d="
					M50.272,67.166c-8.243-3.309-14.489-0.564-17.528,1.414"/>
				<path fill="none" stroke="#C4C2C3" stroke-width="2" stroke-linecap="round" stroke-linejoin="round" d="M31.748,69.282
					c-0.688,0.523-1.051,0.885-1.051,0.885"/>
			</g>
		</g>
		<g>
			<g>
				<path fill="none" stroke="#C4C2C3" stroke-width="2" stroke-linecap="round" stroke-linejoin="round" d="M50.337,73.587
					c-0.409-0.239-0.813-0.45-1.221-0.643"/>
				
					<path fill="none" stroke="#C4C2C3" stroke-width="2" stroke-linecap="round" stroke-linejoin="round" stroke-dasharray="6.9437,6.9437" d="
					M46.1,71.93c-4.379-0.932-8.362,0.459-10.813,1.694"/>
				<path fill="none" stroke="#C4C2C3" stroke-width="2" stroke-linecap="round" stroke-linejoin="round" d="M33.896,74.399
					c-0.734,0.445-1.143,0.767-1.143,0.767"/>
			</g>
		</g>
	</g>
	<g>
		<g>
			<path fill="none" stroke="#C4C2C3" stroke-width="2" stroke-linecap="round" stroke-linejoin="round" d="M0.002,297.22
				c0,0,0.279,0.399,0.821,1.102"/>
			
				<path fill="none" stroke="#C4C2C3" stroke-width="2" stroke-linecap="round" stroke-linejoin="round" stroke-dasharray="5.9462,5.9462" d="
				M2.563,300.423c6.554,7.56,25.417,25.482,53.318,20.286c24.647-4.594,40.867-22.966,37.984-34.771
				c-1.666-6.815-14.063-8.046-19.419-7.233c-7.316,1.105-12.824,8.141-10.722,15.495c3.062,10.707,30.6,23.866,58.156,9.656
				c17.478-9.011,26.854-22.968,30.072-28.534"/>
			<path fill="none" stroke="#C4C2C3" stroke-width="2" stroke-linecap="round" stroke-linejoin="round" d="M152.618,274.134
				c0.422-0.785,0.629-1.222,0.629-1.222"/>
		</g>
	</g>
	<path fill="#55C3C3" d="M198.96,193.942c-0.376-0.243-0.808-0.362-1.234-0.362c-0.44,0-0.881,0.124-1.262,0.381l-68.208,45.47
		c-0.706,0.469-1.088,1.29-1,2.125c0.087,0.84,0.633,1.565,1.418,1.873l17.79,7.118l8.362,14.637
		c0.404,0.707,1.143,1.139,1.95,1.147c0.01,0,0.014,0,0.023,0c0.798,0,1.537-0.422,1.95-1.102l4.718-7.876l22.045,8.817
		c0.271,0.105,0.556,0.16,0.845,0.16c0.385,0,0.767-0.096,1.115-0.294c0.602-0.339,1.015-0.927,1.129-1.606l11.369-68.207
		C200.116,195.333,199.722,194.434,198.96,193.942z M134.379,240.817l52.689-35.13l-38.306,41.009
		c-0.201-0.119-0.381-0.28-0.605-0.367L134.379,240.817z M150.415,248.294c-0.004-0.01-0.014-0.014-0.018-0.023l43.069-46.099
		l-36.713,57.206L150.415,248.294z M184.581,260.897l-19.419-7.766c-0.464-0.185-0.94-0.244-1.418-0.271l29.901-46.356
		L184.581,260.897z"/>
	<g>
		<g id="calendar_1_">
			<path fill="#55C3C3" d="M68.158,107.945h-10.07V103.3c0-1.285-1.042-2.322-2.322-2.322c-1.285,0-2.323,1.037-2.323,2.322v4.645
				H39.5V103.3c0-1.285-1.042-2.322-2.322-2.322c-1.28,0-2.323,1.037-2.323,2.322v4.645H20.912V103.3
				c0-1.285-1.042-2.322-2.322-2.322c-1.28,0-2.322,1.037-2.322,2.322v4.645H6.198c-3.424,0-6.196,2.772-6.196,6.196v52.236
				c0,3.424,2.772,6.196,6.196,6.196h61.961c3.424,0,6.196-2.772,6.196-6.196v-52.24C74.355,110.717,71.582,107.945,68.158,107.945z
				 M69.71,166.377c0,0.854-0.693,1.551-1.547,1.551H6.202c-0.858,0-1.551-0.692-1.551-1.551v-52.24
				c0-0.854,0.693-1.547,1.551-1.547h10.07v4.645c0,1.285,1.042,2.322,2.322,2.322c1.28,0,2.322-1.037,2.322-2.322v-4.645h13.939
				v4.645c0,1.285,1.042,2.322,2.323,2.322c1.281,0,2.322-1.037,2.322-2.322v-4.645h13.939v4.645c0,1.285,1.042,2.322,2.323,2.322
				c1.285,0,2.322-1.037,2.322-2.322v-4.645h10.07c0.854,0,1.546,0.693,1.546,1.547v52.24H69.71z"/>
			<path fill="none" stroke="#C4C2C3" stroke-width="2" stroke-linecap="round" stroke-linejoin="round" stroke-miterlimit="10" d="
				M42.631,139.775c0.496,0.744,1.088,2.373,1.06,3.782c-0.055,2.813-2.969,4.888-6.976,4.888c-4.012,0-6.036-3.08-6.036-6.036
				c0-4.011,3.24-6.306,7.247-6.306c1.616,0,4.071,1.01,5.274,1.9"/>
		</g>
		<g id="calendar_2_">
			<g>
				<g>
					<path fill="none" stroke="#55C3C3" stroke-width="4" stroke-miterlimit="10" d="M16.226,128.879
						c0-0.757,0.62-1.377,1.377-1.377h6.541c0.757,0,1.377,0.62,1.377,1.377v4.218c0,0.757-0.62,1.377-1.377,1.377h-6.541
						c-0.757,0-1.377-0.62-1.377-1.377V128.879z"/>
				</g>
				<g>
					<path fill="none" stroke="#55C3C3" stroke-width="4" stroke-miterlimit="10" d="M16.226,140.495
						c0-0.757,0.62-1.377,1.377-1.377h6.541c0.757,0,1.377,0.62,1.377,1.377v4.218c0,0.757-0.62,1.376-1.377,1.376h-6.541
						c-0.757,0-1.377-0.619-1.377-1.376V140.495z"/>
				</g>
				<g>
					<path fill="none" stroke="#55C3C3" stroke-width="4" stroke-miterlimit="10" d="M16.226,152.117
						c0-0.758,0.62-1.377,1.377-1.377h6.541c0.757,0,1.377,0.619,1.377,1.377v4.218c0,0.757-0.62,1.377-1.377,1.377h-6.541
						c-0.757,0-1.377-0.62-1.377-1.377V152.117z"/>
				</g>
				<g>
					<path fill="none" stroke="#55C3C3" stroke-width="4" stroke-miterlimit="10" d="M32.492,152.117
						c0-0.758,0.62-1.377,1.377-1.377h6.541c0.757,0,1.377,0.619,1.377,1.377v4.218c0,0.757-0.62,1.377-1.377,1.377h-6.541
						c-0.757,0-1.377-0.62-1.377-1.377V152.117z"/>
				</g>
				<g>
					<path fill="#55C3C3" d="M32.492,140.495c0-0.757,0.62-1.377,1.377-1.377h6.541c0.757,0,1.377,0.62,1.377,1.377v4.218
						c0,0.757-0.62,1.376-1.377,1.376h-6.541c-0.757,0-1.377-0.619-1.377-1.376V140.495z"/>
				</g>
				<g>
					<path fill="none" stroke="#55C3C3" stroke-width="4" stroke-miterlimit="10" d="M32.492,128.879
						c0-0.757,0.62-1.377,1.377-1.377h6.541c0.757,0,1.377,0.62,1.377,1.377v4.218c0,0.757-0.62,1.377-1.377,1.377h-6.541
						c-0.757,0-1.377-0.62-1.377-1.377V128.879z"/>
				</g>
				<g>
					<path fill="none" stroke="#55C3C3" stroke-width="4" stroke-miterlimit="10" d="M48.753,152.117
						c0-0.758,0.62-1.377,1.377-1.377h6.541c0.757,0,1.376,0.619,1.376,1.377v4.218c0,0.757-0.619,1.377-1.376,1.377H50.13
						c-0.757,0-1.377-0.62-1.377-1.377V152.117z"/>
				</g>
				<g>
					<path fill="none" stroke="#55C3C3" stroke-width="4" stroke-miterlimit="10" d="M48.753,140.495
						c0-0.757,0.62-1.377,1.377-1.377h6.541c0.757,0,1.376,0.62,1.376,1.377v4.218c0,0.757-0.619,1.376-1.376,1.376H50.13
						c-0.757,0-1.377-0.619-1.377-1.376V140.495z"/>
				</g>
				<g>
					<path fill="none" stroke="#55C3C3" stroke-width="4" stroke-miterlimit="10" d="M48.753,128.879
						c0-0.757,0.62-1.377,1.377-1.377h6.541c0.757,0,1.376,0.62,1.376,1.377v4.218c0,0.757-0.619,1.377-1.376,1.377H50.13
						c-0.757,0-1.377-0.62-1.377-1.377V128.879z"/>
				</g>
			</g>
		</g>
	</g>
	<g id="g5908_1_" transform="matrix(0.872921,0,0,0.872921,50.12536,143.2144)">
		<g id="g5706_1_" transform="translate(-289.6157,99.0653)">
			<path id="path5708_1_" fill="#55C3C3" d="M416.488-226.471c7.66,7.66,11.493,17.037,11.493,28.13
				c0,11.093-3.763,20.373-11.295,27.836c-7.987,7.857-17.432,11.786-28.324,11.786c-10.762,0-20.038-3.892-27.832-11.69
				c-7.793-7.789-11.685-17.101-11.685-27.932c0-10.827,3.892-20.204,11.685-28.13c7.596-7.66,16.873-11.493,27.832-11.493
				C399.455-237.964,408.828-234.136,416.488-226.471z M365.684-221.322c-6.475,6.54-9.712,14.201-9.712,22.985
				c0,8.789,3.208,16.38,9.617,22.788c6.411,6.407,14.039,9.61,22.893,9.61c8.854,0,16.546-3.236,23.086-9.707
				c6.21-6.012,9.317-13.571,9.317-22.691c0-9.046-3.157-16.725-9.463-23.036c-6.306-6.306-13.953-9.464-22.94-9.464
				C379.495-230.831,371.894-227.664,365.684-221.322z M382.727-202.197c-0.992-2.157-2.47-3.235-4.444-3.235
				c-3.493,0-5.241,2.349-5.241,7.049s1.744,7.05,5.241,7.05c2.305,0,3.951-1.147,4.939-3.437l4.842,2.579
				c-2.305,4.099-5.769,6.151-10.386,6.151c-3.558,0-6.413-1.092-8.552-3.273c-2.142-2.18-3.212-5.191-3.212-9.028
				c0-3.768,1.102-6.761,3.309-8.978c2.212-2.212,4.962-3.323,8.261-3.323c4.88,0,8.373,1.923,10.484,5.764L382.727-202.197z
				 M405.5-202.197c-0.99-2.157-2.441-3.235-4.355-3.235c-3.562,0-5.342,2.349-5.342,7.049s1.78,7.05,5.342,7.05
				c2.309,0,3.929-1.147,4.847-3.437l4.952,2.579c-2.303,4.099-5.759,6.151-10.368,6.151c-3.552,0-6.397-1.092-8.542-3.273
				c-2.138-2.18-3.207-5.191-3.207-9.028c0-3.768,1.087-6.761,3.259-8.978c2.17-2.212,4.934-3.323,8.293-3.323
				c4.87,0,8.358,1.923,10.465,5.764L405.5-202.197z"/>
		</g>
	</g>
	
		<line fill="none" stroke="#C4C2C3" stroke-width="2" stroke-linecap="round" stroke-linejoin="round" stroke-miterlimit="10" stroke-dasharray="6" x1="136.315" y1="19.736" x2="136.315" y2="0"/>
	
		<line fill="none" stroke="#C4C2C3" stroke-width="2" stroke-linecap="round" stroke-linejoin="round" stroke-miterlimit="10" stroke-dasharray="6" x1="172.803" y1="92.597" x2="162.821" y2="82.582"/>
	
		<line fill="none" stroke="#C4C2C3" stroke-width="2" stroke-linecap="round" stroke-linejoin="round" stroke-miterlimit="10" stroke-dasharray="6" x1="162.821" y1="30.186" x2="173.033" y2="20.08"/>
	
		<line fill="none" stroke="#C4C2C3" stroke-width="2" stroke-linecap="round" stroke-linejoin="round" stroke-miterlimit="10" stroke-dasharray="6" x1="99.139" y1="92.827" x2="109.232" y2="82.582"/>
	
		<line fill="none" stroke="#C4C2C3" stroke-width="2" stroke-linecap="round" stroke-linejoin="round" stroke-miterlimit="10" stroke-dasharray="6" x1="109.232" y1="30.186" x2="99.033" y2="19.956"/>
	
		<line fill="none" stroke="#C4C2C3" stroke-width="2" stroke-linecap="round" stroke-linejoin="round" stroke-miterlimit="10" stroke-dasharray="6" x1="136.315" y1="113.366" x2="136.315" y2="93.63"/>
	
		<line fill="none" stroke="#C4C2C3" stroke-width="2" stroke-linecap="round" stroke-linejoin="round" stroke-miterlimit="10" stroke-dasharray="6" x1="192.769" y1="55.994" x2="173.033" y2="55.994"/>
	
		<line fill="none" stroke="#C4C2C3" stroke-width="2" stroke-linecap="round" stroke-linejoin="round" stroke-miterlimit="10" stroke-dasharray="6" x1="99.598" y1="55.994" x2="79.404" y2="55.994"/>
	<path fill="#55C3C3" d="M122.285,162.154c0,12.218,13.214,22.127,29.503,22.127c1.95,0,3.851-0.151,5.69-0.423
		c1.263,1.533,6.692,6.83,12.452,7.771c-0.009-0.022,0.299,0.023,0.469,0.023c0.922,0,1.67-0.748,1.67-1.671
		c0-0.234-0.051-0.459-0.138-0.661c0,0,0,0,0.005,0c-1.088-1.868-3.558-5.43-3.558-8.734c0-0.055-0.014-0.087-0.014-0.137
		c7.798-3.984,12.925-10.694,12.925-18.305c0-12.222-13.209-22.126-29.502-22.126C135.494,140.027,122.285,149.936,122.285,162.154z
		 M125.97,162.154c0-10.167,11.585-18.441,25.817-18.441c14.236,0,25.816,8.271,25.816,18.441c0,5.911-4.08,11.529-10.914,15.018
		c-1.234,0.629-2.01,1.896-2.01,3.281c0,0.102,0.004,0.221,0.018,0.34c0.042,1.904,0.602,3.754,1.322,5.407
		c-2.653-1.579-4.897-3.723-5.688-4.682c-0.706-0.858-1.757-1.345-2.85-1.345c-0.175,0-0.357,0.009-0.537,0.041
		c-1.73,0.252-3.465,0.381-5.154,0.381C137.555,180.596,125.97,172.32,125.97,162.154z"/>
	<path fill="#55C3C3" d="M124.969,125.758c-16.293,0-29.502,9.909-29.502,22.127c0,7.61,5.122,14.32,12.925,18.304
		c0,0.051-0.015,0.082-0.015,0.138c0,3.305-2.469,6.866-3.557,8.734c0.005,0,0.005,0,0.005,0c-0.087,0.201-0.138,0.427-0.138,0.66
		c0,0.923,0.748,1.671,1.67,1.671c0.175,0,0.478-0.045,0.469-0.022c5.765-0.945,11.189-6.238,12.452-7.771
		c1.84,0.271,3.74,0.422,5.69,0.422c16.294,0,29.503-9.909,29.503-22.126C154.477,135.667,141.263,125.758,124.969,125.758z
		 M124.969,166.326c-1.688,0-3.424-0.129-5.154-0.381c-0.179-0.027-0.357-0.041-0.536-0.041c-1.098,0-2.144,0.486-2.851,1.345
		c-0.789,0.964-3.034,3.103-5.687,4.681c0.721-1.647,1.28-3.501,1.322-5.406c0.009-0.119,0.018-0.238,0.018-0.34
		c0-1.386-0.775-2.652-2.011-3.281c-6.834-3.488-10.914-9.106-10.914-15.018c0-10.166,11.58-18.441,25.817-18.441
		c14.232,0,25.816,8.271,25.816,18.441C150.787,158.056,139.207,166.326,124.969,166.326z"/>
	
		<line fill="none" stroke="#C4C2C3" stroke-width="2" stroke-linecap="round" stroke-linejoin="round" stroke-miterlimit="10" x1="127.599" y1="163.513" x2="145.959" y2="145.154"/>
	<path fill="none" stroke="#C4C2C3" stroke-linecap="round" stroke-linejoin="round" stroke-miterlimit="10" d="M142.314,146.503"/>
	<path fill="none" stroke="#C4C2C3" stroke-linecap="round" stroke-linejoin="round" stroke-miterlimit="10" d="M127.829,160.988"/>
	
		<line fill="none" stroke="#C4C2C3" stroke-width="2" stroke-linecap="round" stroke-linejoin="round" stroke-miterlimit="10" x1="128.485" y1="157.119" x2="137.628" y2="147.995"/>
	
		<line fill="none" stroke="#C4C2C3" stroke-width="2" stroke-linecap="round" stroke-linejoin="round" stroke-miterlimit="10" x1="127.829" y1="160.529" x2="142.314" y2="146.044"/>
	
		<line fill="none" stroke="#C4C2C3" stroke-width="2" stroke-linecap="round" stroke-linejoin="round" stroke-miterlimit="10" x1="142.044" y1="160.061" x2="147.973" y2="153.961"/>
	
		<line fill="none" stroke="#C4C2C3" stroke-width="2" stroke-linecap="round" stroke-linejoin="round" stroke-miterlimit="10" x1="137.294" y1="162.081" x2="148.713" y2="150.662"/>
	
		<line fill="none" stroke="#C4C2C3" stroke-width="2" stroke-linecap="round" stroke-linejoin="round" stroke-miterlimit="10" x1="133.107" y1="163.513" x2="149.139" y2="147.481"/>
	
		<line fill="none" stroke="#C4C2C3" stroke-width="2" stroke-linecap="round" stroke-linejoin="round" stroke-miterlimit="10" x1="129.463" y1="164.403" x2="148.713" y2="145.154"/>
</g>
</svg>
