<?xml version="1.0" encoding="utf-8"?>
<!-- Generator: Adobe Illustrator 16.0.0, SVG Export Plug-In . SVG Version: 6.00 Build 0)  -->
<!DOCTYPE svg PUBLIC "-//W3C//DTD SVG 1.1//EN" "http://www.w3.org/Graphics/SVG/1.1/DTD/svg11.dtd">
<svg version="1.1" id="Layer_1" xmlns="http://www.w3.org/2000/svg" xmlns:xlink="http://www.w3.org/1999/xlink" x="0px" y="0px"
	 width="438px" height="705px" viewBox="0 0 438 705" enable-background="new 0 0 438 705" xml:space="preserve">
<g>
	<g>
		<path fill="#55C3C3" d="M51.32,111.79c-2.51,0-4.65-1.72-5.72-4.6L24.77,51.15c-1.41-3.79-1.1-9.92,1.87-13.6
			c5.52-6.86,17.58-18.5,35.43-17.81c5.46,0.21,10.43,1.14,14.82,1.97c4.21,0.79,8.18,1.54,11.92,1.54
			c7.24,0,15.57-2.41,27.34-19.92c1.94-2.89,4.19-3.32,5.35-3.32c1.16,0,4.04,0.44,5.56,4.55l20.48,55.08
			c1.33,3.57,1.53,9.56-0.72,13.64c-3.47,6.31-10.98,17.48-22.31,21.3c-3.22,1.08-6.8,1.61-10.96,1.61c-5.31,0-10.8-0.86-16.11-1.69
			c-5.07-0.79-9.86-1.54-14.26-1.54c-3.17,0-5.79,0.4-7.99,1.22c-8.24,3.07-15.14,10.52-18.52,14.69
			C54.71,111.28,52.68,111.79,51.32,111.79z M60.56,26.03c-14.39,0-24.35,9.7-29,15.48c-1.28,1.59-1.7,5.2-0.87,7.44l20.84,56.04
			c0.02,0.04,0.03,0.08,0.05,0.12c0.06-0.06,0.12-0.13,0.19-0.21c4.63-5.71,12.06-13.23,21.23-16.64c2.92-1.09,6.26-1.62,10.2-1.62
			c4.89,0,10.15,0.82,15.24,1.62c5.07,0.79,10.31,1.61,15.13,1.61c3.46,0,6.39-0.42,8.94-1.28c9.3-3.13,15.76-12.84,18.79-18.35
			c1.08-1.96,1.24-5.97,0.33-8.4L121.24,7.05c-10.65,15.78-20.36,22.51-32.44,22.51c-4.33,0-8.58-0.8-13.09-1.65
			c-4.38-0.82-8.9-1.67-13.9-1.86C61.39,26.03,60.97,26.03,60.56,26.03z"/>
	</g>
	<path fill="#55C3C3" d="M5.74,32.07c-4.56,1.7-6.88,6.77-5.19,11.33c0.44,1.17,1.1,2.19,1.91,3.02c1.38,1.43,3.9,4.53,5.05,7.64
		L52.8,175.84c1.15,3.1,4.61,4.69,7.72,3.54c3.11-1.16,4.69-4.62,3.53-7.72L18.77,49.88c-1.16-3.11-1.28-7.09-1.17-9.08
		c0.07-1.16-0.1-2.37-0.53-3.54C15.38,32.7,10.31,30.37,5.74,32.07z"/>
	<g>
		<path fill="#55C3C3" d="M102.49,22.9c3.36,9.04,5.72,15.38,9.08,24.42c10.36-2.3,14.06-7.43,20.5-20.22l-7.97-21.45
			c-1.16-3.11-3.49-3.32-5.33-0.57c-6.42,9.55-12.06,15.05-17.42,18.07C101.73,23.06,102.08,22.99,102.49,22.9z"/>
		<path fill="#55C3C3" d="M140.23,49.21c-6.48,12.79-10.19,17.9-20.57,20.17c2.72,7.3,5.14,13.83,7.64,20.54
			c8.1-4.33,13.73-12.66,16.76-18.17c1.6-2.91,1.68-7.91,0.53-11.02l-7.7-20.7L140.23,49.21z"/>
		<path fill="#55C3C3" d="M91.85,70.27c11.68,1.21,10.7,5.7,28.13,0.16c-3.43-9.23-5.15-13.84-8.58-23.06
			c-14.66,5.45-16.45,1.06-28.13-0.16C86.71,56.44,88.42,61.05,91.85,70.27z"/>
		<path fill="#55C3C3" d="M91.41,69.24c-11.68-1.21-18.44-6.09-28.09-0.03c2.83,7.61,5.7,15.33,8.54,22.98
			c0.74-0.34,1.46-0.69,2.22-0.97c7.22-2.69,16.38-0.99,25.66,0.45C96.44,82.76,94.75,78.21,91.41,69.24z"/>
		<path fill="#55C3C3" d="M54.81,47.25c-9.3,2.21-16.34,5.3-22.33,15.59l8.57,23.05c6.49-8.22,13.16-13.48,22.6-15.65
			c-3.43-9.23-5.15-13.84-8.58-23.07c14.72-5.48,16.22-1.22,27.78-0.02c-3.36-9.04-5.04-13.55-8.4-22.59
			c0.4,0.04,0.74,0.06,1.12,0.1c-4.21-0.79-8.69-1.59-13.64-1.78c-5.69-0.22-10.73,0.95-15.13,2.81
			C49.42,32.75,51.96,39.58,54.81,47.25z"/>
	</g>
	<g>
		<g>
			<path fill="none" stroke="#C4C2C3" stroke-width="2" stroke-linecap="round" stroke-linejoin="round" d="M122.67,137.33
				c-0.87-0.53-1.73-1.04-2.58-1.53"/>
			
				<path fill="none" stroke="#C4C2C3" stroke-width="2" stroke-linecap="round" stroke-linejoin="round" stroke-dasharray="5.6243,5.6243" d="
				M115.09,133.21c-25.21-11.9-42.71-1.81-50.25,4.43"/>
			<path fill="none" stroke="#C4C2C3" stroke-width="2" stroke-linecap="round" stroke-linejoin="round" d="M62.74,139.5
				c-1.37,1.3-2.07,2.17-2.07,2.17"/>
		</g>
	</g>
	<g>
		<g>
			<path fill="none" stroke="#C4C2C3" stroke-width="2" stroke-linecap="round" stroke-linejoin="round" d="M117,150
				c-0.89-0.51-1.76-0.99-2.63-1.44"/>
			
				<path fill="none" stroke="#C4C2C3" stroke-width="2" stroke-linecap="round" stroke-linejoin="round" stroke-dasharray="5.3161,5.3161" d="
				M109.53,146.34c-17.96-7.21-31.57-1.23-38.19,3.08"/>
			<path fill="none" stroke="#C4C2C3" stroke-width="2" stroke-linecap="round" stroke-linejoin="round" d="M69.17,150.95
				c-1.5,1.14-2.29,1.93-2.29,1.93"/>
		</g>
	</g>
	<g>
		<g>
			<path fill="none" stroke="#C4C2C3" stroke-width="2" stroke-linecap="round" stroke-linejoin="round" d="M109.67,160.33
				c-0.89-0.52-1.77-0.98-2.66-1.4"/>
			
				<path fill="none" stroke="#C4C2C3" stroke-width="2" stroke-linecap="round" stroke-linejoin="round" stroke-dasharray="6.9437,6.9437" d="
				M100.44,156.72c-9.54-2.03-18.22,1-23.56,3.69"/>
			<path fill="none" stroke="#C4C2C3" stroke-width="2" stroke-linecap="round" stroke-linejoin="round" d="M73.85,162.1
				c-1.6,0.97-2.49,1.67-2.49,1.67"/>
		</g>
	</g>
</g>
<g>
	<g>
		<path fill="none" stroke="#C4C2C3" stroke-width="2" stroke-linecap="round" stroke-linejoin="round" d="M0,647.58
			c0,0,0.61,0.87,1.79,2.4"/>
		
			<path fill="none" stroke="#C4C2C3" stroke-width="2" stroke-linecap="round" stroke-linejoin="round" stroke-dasharray="5.9462,5.9462" d="
			M5.58,654.56c14.28,16.47,55.38,55.52,116.17,44.2c53.7-10.01,89.04-50.04,82.76-75.76c-3.63-14.85-30.64-17.53-42.31-15.76
			c-15.94,2.41-27.94,17.74-23.36,33.76c6.67,23.33,66.67,52,126.71,21.04c38.08-19.63,58.51-50.04,65.52-62.17"/>
		<path fill="none" stroke="#C4C2C3" stroke-width="2" stroke-linecap="round" stroke-linejoin="round" d="M332.52,597.28
			c0.92-1.71,1.37-2.66,1.37-2.66"/>
	</g>
</g>
<path fill="#55C3C3" d="M433.49,422.56c-0.82-0.53-1.76-0.79-2.69-0.79c-0.96,0-1.92,0.27-2.75,0.83l-148.61,99.07
	c-1.54,1.02-2.37,2.81-2.18,4.63c0.19,1.83,1.38,3.41,3.09,4.08l38.76,15.51l18.22,31.89c0.88,1.54,2.49,2.48,4.25,2.5
	c0.02,0,0.03,0,0.05,0c1.74,0,3.35-0.92,4.25-2.4l10.28-17.16l48.03,19.21c0.59,0.23,1.21,0.35,1.84,0.35
	c0.84,0,1.67-0.21,2.43-0.64c1.31-0.74,2.21-2.02,2.46-3.5l24.77-148.61C436.01,425.59,435.15,423.63,433.49,422.56z M292.78,524.69
	l114.8-76.54l-83.46,89.35c-0.44-0.26-0.83-0.61-1.32-0.8L292.78,524.69z M327.72,540.98c-0.01-0.02-0.03-0.03-0.04-0.05
	l93.84-100.44l-79.99,124.64L327.72,540.98z M402.16,568.44l-42.31-16.92c-1.01-0.4-2.05-0.53-3.09-0.59l65.15-101L402.16,568.44z"
	/>
<g>
	<g id="calendar_1_">
		<path fill="#55C3C3" d="M148.5,235.19h-21.94v-10.12c0-2.8-2.27-5.06-5.06-5.06c-2.8,0-5.06,2.26-5.06,5.06v10.12H86.06v-10.12
			c0-2.8-2.27-5.06-5.06-5.06s-5.06,2.26-5.06,5.06v10.12H45.56v-10.12c0-2.8-2.27-5.06-5.06-5.06c-2.79,0-5.06,2.26-5.06,5.06
			v10.12H13.5c-7.46,0-13.5,6.04-13.5,13.5V362.5c0,7.46,6.04,13.5,13.5,13.5h135c7.46,0,13.5-6.04,13.5-13.5V248.68
			C162,241.23,155.96,235.19,148.5,235.19z M151.88,362.5c0,1.86-1.51,3.38-3.37,3.38h-135c-1.87,0-3.38-1.51-3.38-3.38V248.68
			c0-1.86,1.51-3.37,3.38-3.37h21.94v10.12c0,2.8,2.27,5.06,5.06,5.06c2.79,0,5.06-2.26,5.06-5.06v-10.12h30.37v10.12
			c0,2.8,2.27,5.06,5.06,5.06s5.06-2.26,5.06-5.06v-10.12h30.37v10.12c0,2.8,2.27,5.06,5.06,5.06c2.8,0,5.06-2.26,5.06-5.06v-10.12
			h21.94c1.86,0,3.37,1.51,3.37,3.37V362.5z"/>
		<path fill="none" stroke="#C4C2C3" stroke-width="2" stroke-linecap="round" stroke-linejoin="round" stroke-miterlimit="10" d="
			M92.88,304.54c1.08,1.62,2.37,5.17,2.31,8.24c-0.12,6.13-6.47,10.65-15.2,10.65c-8.74,0-13.15-6.71-13.15-13.15
			c0-8.74,7.06-13.74,15.79-13.74c3.52,0,8.87,2.2,11.49,4.14"/>
	</g>
	<g id="calendar_2_">
		<g>
			<g>
				<path fill="none" stroke="#55C3C3" stroke-width="4" stroke-miterlimit="10" d="M35.35,280.8c0-1.65,1.35-3,3-3H52.6
					c1.65,0,3,1.35,3,3v9.19c0,1.65-1.35,3-3,3H38.35c-1.65,0-3-1.35-3-3V280.8z"/>
			</g>
			<g>
				<path fill="none" stroke="#55C3C3" stroke-width="4" stroke-miterlimit="10" d="M35.35,306.11c0-1.65,1.35-3,3-3H52.6
					c1.65,0,3,1.35,3,3v9.19c0,1.65-1.35,3-3,3H38.35c-1.65,0-3-1.35-3-3V306.11z"/>
			</g>
			<g>
				<path fill="none" stroke="#55C3C3" stroke-width="4" stroke-miterlimit="10" d="M35.35,331.43c0-1.65,1.35-3,3-3H52.6
					c1.65,0,3,1.35,3,3v9.19c0,1.65-1.35,3-3,3H38.35c-1.65,0-3-1.35-3-3V331.43z"/>
			</g>
			<g>
				<path fill="none" stroke="#55C3C3" stroke-width="4" stroke-miterlimit="10" d="M70.79,331.43c0-1.65,1.35-3,3-3h14.25
					c1.65,0,3,1.35,3,3v9.19c0,1.65-1.35,3-3,3H73.79c-1.65,0-3-1.35-3-3V331.43z"/>
			</g>
			<g>
				<path fill="#55C3C3" d="M70.79,306.11c0-1.65,1.35-3,3-3h14.25c1.65,0,3,1.35,3,3v9.19c0,1.65-1.35,3-3,3H73.79
					c-1.65,0-3-1.35-3-3V306.11z"/>
			</g>
			<g>
				<path fill="none" stroke="#55C3C3" stroke-width="4" stroke-miterlimit="10" d="M70.79,280.8c0-1.65,1.35-3,3-3h14.25
					c1.65,0,3,1.35,3,3v9.19c0,1.65-1.35,3-3,3H73.79c-1.65,0-3-1.35-3-3V280.8z"/>
			</g>
			<g>
				<path fill="none" stroke="#55C3C3" stroke-width="4" stroke-miterlimit="10" d="M106.22,331.43c0-1.65,1.35-3,3-3h14.25
					c1.65,0,3,1.35,3,3v9.19c0,1.65-1.35,3-3,3h-14.25c-1.65,0-3-1.35-3-3V331.43z"/>
			</g>
			<g>
				<path fill="none" stroke="#55C3C3" stroke-width="4" stroke-miterlimit="10" d="M106.22,306.11c0-1.65,1.35-3,3-3h14.25
					c1.65,0,3,1.35,3,3v9.19c0,1.65-1.35,3-3,3h-14.25c-1.65,0-3-1.35-3-3V306.11z"/>
			</g>
			<g>
				<path fill="none" stroke="#55C3C3" stroke-width="4" stroke-miterlimit="10" d="M106.22,280.8c0-1.65,1.35-3,3-3h14.25
					c1.65,0,3,1.35,3,3v9.19c0,1.65-1.35,3-3,3h-14.25c-1.65,0-3-1.35-3-3V280.8z"/>
			</g>
		</g>
	</g>
</g>
<g id="g5908_1_" transform="matrix(0.872921,0,0,0.872921,50.12536,143.2144)">
	<g id="g5706_1_" transform="translate(-289.6157,99.0653)">
		<path id="path5708_1_" fill="#55C3C3" d="M633.73-183.26c16.69,16.69,25.04,37.12,25.04,61.29c0,24.17-8.2,44.39-24.61,60.65
			c-17.4,17.12-37.98,25.68-61.71,25.68c-23.45,0-43.66-8.48-60.64-25.47c-16.98-16.97-25.46-37.26-25.46-60.86
			c0-23.59,8.48-44.02,25.46-61.29c16.55-16.69,36.76-25.04,60.64-25.04C596.62-208.3,617.04-199.96,633.73-183.26z M523.04-172.04
			c-14.11,14.25-21.16,30.94-21.16,50.08c0,19.15,6.99,35.69,20.95,49.65c13.97,13.96,30.59,20.94,49.88,20.94
			c19.29,0,36.05-7.05,50.3-21.15c13.53-13.1,20.3-29.57,20.3-49.44c0-19.71-6.88-36.44-20.62-50.19
			c-13.74-13.74-30.4-20.62-49.98-20.62C553.13-192.76,536.57-185.86,523.04-172.04z M560.17-130.37c-2.16-4.7-5.38-7.05-9.68-7.05
			c-7.61,0-11.42,5.12-11.42,15.36c0,10.24,3.8,15.36,11.42,15.36c5.02,0,8.61-2.5,10.76-7.49l10.55,5.62
			c-5.02,8.93-12.57,13.4-22.63,13.4c-7.75,0-13.97-2.38-18.63-7.13c-4.67-4.75-7-11.31-7-19.67c0-8.21,2.4-14.73,7.21-19.56
			c4.82-4.82,10.81-7.24,18-7.24c10.63,0,18.24,4.19,22.84,12.56L560.17-130.37z M609.79-130.37c-2.16-4.7-5.32-7.05-9.49-7.05
			c-7.76,0-11.64,5.12-11.64,15.36c0,10.24,3.88,15.36,11.64,15.36c5.03,0,8.56-2.5,10.56-7.49l10.79,5.62
			c-5.02,8.93-12.55,13.4-22.59,13.4c-7.74,0-13.94-2.38-18.61-7.13c-4.66-4.75-6.99-11.31-6.99-19.67c0-8.21,2.37-14.73,7.1-19.56
			c4.73-4.82,10.75-7.24,18.07-7.24c10.61,0,18.21,4.19,22.8,12.56L609.79-130.37z"/>
	</g>
</g>
<line fill="none" stroke="#C4C2C3" stroke-width="2" stroke-linecap="round" stroke-linejoin="round" stroke-miterlimit="10" stroke-dasharray="6" x1="297" y1="43" x2="297" y2="0"/>
<line fill="none" stroke="#C4C2C3" stroke-width="2" stroke-linecap="round" stroke-linejoin="round" stroke-miterlimit="10" stroke-dasharray="6" x1="376.5" y1="201.75" x2="354.75" y2="179.93"/>
<line fill="none" stroke="#C4C2C3" stroke-width="2" stroke-linecap="round" stroke-linejoin="round" stroke-miterlimit="10" stroke-dasharray="6" x1="354.75" y1="65.77" x2="377" y2="43.75"/>
<line fill="none" stroke="#C4C2C3" stroke-width="2" stroke-linecap="round" stroke-linejoin="round" stroke-miterlimit="10" stroke-dasharray="6" x1="216" y1="202.25" x2="237.99" y2="179.93"/>
<line fill="none" stroke="#C4C2C3" stroke-width="2" stroke-linecap="round" stroke-linejoin="round" stroke-miterlimit="10" stroke-dasharray="6" x1="237.99" y1="65.77" x2="215.77" y2="43.48"/>
<line fill="none" stroke="#C4C2C3" stroke-width="2" stroke-linecap="round" stroke-linejoin="round" stroke-miterlimit="10" stroke-dasharray="6" x1="297" y1="247" x2="297" y2="204"/>
<line fill="none" stroke="#C4C2C3" stroke-width="2" stroke-linecap="round" stroke-linejoin="round" stroke-miterlimit="10" stroke-dasharray="6" x1="420" y1="122" x2="377" y2="122"/>
<line fill="none" stroke="#C4C2C3" stroke-width="2" stroke-linecap="round" stroke-linejoin="round" stroke-miterlimit="10" stroke-dasharray="6" x1="217" y1="122" x2="173" y2="122"/>
<path fill="#55C3C3" d="M266.43,353.3c0,26.62,28.79,48.21,64.28,48.21c4.25,0,8.39-0.33,12.4-0.92
	c2.75,3.34,14.58,14.88,27.13,16.93c-0.02-0.05,0.65,0.05,1.02,0.05c2.01,0,3.64-1.63,3.64-3.64c0-0.51-0.11-1-0.3-1.44
	c0,0,0,0,0.01,0c-2.37-4.07-7.75-11.83-7.75-19.03c0-0.12-0.03-0.19-0.03-0.3c16.99-8.68,28.16-23.3,28.16-39.88
	c0-26.63-28.78-48.21-64.28-48.21C295.21,305.09,266.43,326.68,266.43,353.3z M274.46,353.3c0-22.15,25.24-40.18,56.25-40.18
	c31.02,0,56.25,18.02,56.25,40.18c0,12.88-8.89,25.12-23.78,32.72c-2.69,1.37-4.38,4.13-4.38,7.15c0,0.22,0.01,0.48,0.04,0.74
	c0.09,4.15,1.31,8.18,2.88,11.78c-5.78-3.44-10.67-8.11-12.39-10.2c-1.54-1.87-3.83-2.93-6.21-2.93c-0.38,0-0.78,0.02-1.17,0.09
	c-3.77,0.55-7.55,0.83-11.23,0.83C299.7,393.48,274.46,375.45,274.46,353.3z"/>
<path fill="#55C3C3" d="M272.28,274c-35.5,0-64.28,21.59-64.28,48.21c0,16.58,11.16,31.2,28.16,39.88c0,0.11-0.03,0.18-0.03,0.3
	c0,7.2-5.38,14.96-7.75,19.03c0.01,0,0.01,0,0.01,0c-0.19,0.44-0.3,0.93-0.3,1.44c0,2.01,1.63,3.64,3.64,3.64
	c0.38,0,1.04-0.1,1.02-0.05c12.56-2.06,24.38-13.59,27.13-16.93c4.01,0.59,8.15,0.92,12.4,0.92c35.5,0,64.28-21.59,64.28-48.21
	C336.57,295.59,307.78,274,272.28,274z M272.28,362.39c-3.68,0-7.46-0.28-11.23-0.83c-0.39-0.06-0.78-0.09-1.17-0.09
	c-2.39,0-4.67,1.06-6.21,2.93c-1.72,2.1-6.61,6.76-12.39,10.2c1.57-3.59,2.79-7.63,2.88-11.78c0.02-0.26,0.04-0.52,0.04-0.74
	c0-3.02-1.69-5.78-4.38-7.15c-14.89-7.6-23.78-19.84-23.78-32.72c0-22.15,25.23-40.18,56.25-40.18c31.01,0,56.25,18.02,56.25,40.18
	C328.53,344.37,303.3,362.39,272.28,362.39z"/>
<line fill="none" stroke="#C4C2C3" stroke-width="2" stroke-linecap="round" stroke-linejoin="round" stroke-miterlimit="10" x1="278.01" y1="356.26" x2="318.01" y2="316.26"/>
<path fill="none" stroke="#C4C2C3" stroke-linecap="round" stroke-linejoin="round" stroke-miterlimit="10" d="M310.07,319.2"/>
<path fill="none" stroke="#C4C2C3" stroke-linecap="round" stroke-linejoin="round" stroke-miterlimit="10" d="M278.51,350.76"/>
<line fill="none" stroke="#C4C2C3" stroke-width="2" stroke-linecap="round" stroke-linejoin="round" stroke-miterlimit="10" x1="279.94" y1="342.33" x2="299.86" y2="322.45"/>
<line fill="none" stroke="#C4C2C3" stroke-width="2" stroke-linecap="round" stroke-linejoin="round" stroke-miterlimit="10" x1="278.51" y1="349.76" x2="310.07" y2="318.2"/>
<line fill="none" stroke="#C4C2C3" stroke-width="2" stroke-linecap="round" stroke-linejoin="round" stroke-miterlimit="10" x1="309.48" y1="348.74" x2="322.4" y2="335.45"/>
<line fill="none" stroke="#C4C2C3" stroke-width="2" stroke-linecap="round" stroke-linejoin="round" stroke-miterlimit="10" x1="299.13" y1="353.14" x2="324.01" y2="328.26"/>
<line fill="none" stroke="#C4C2C3" stroke-width="2" stroke-linecap="round" stroke-linejoin="round" stroke-miterlimit="10" x1="290.01" y1="356.26" x2="324.94" y2="321.33"/>
<line fill="none" stroke="#C4C2C3" stroke-width="2" stroke-linecap="round" stroke-linejoin="round" stroke-miterlimit="10" x1="282.07" y1="358.2" x2="324.01" y2="316.26"/>
</svg>
